<svg width="123" height="127" viewBox="0 0 123 127" fill="none" xmlns="http://www.w3.org/2000/svg">
<path fill-rule="evenodd" clip-rule="evenodd" d="M44.6999 82.3834C50.2218 85.6226 55.7528 88.867 61.2994 92.1167C74.4475 84.4304 87.4788 76.7441 100.452 69.0875V22.9698L61.2702 0C60.2066 0.625435 59.1549 1.24482 58.1151 1.85718C55.8987 3.16255 53.7364 4.43603 51.6282 5.66826V11.3365L52.0628 11.0809L52.063 11.0808C55.232 9.2173 58.2244 7.45762 61.2702 5.69794C64.3584 7.50975 67.4425 9.31942 70.5229 11.1269L70.5294 11.1307C78.9002 16.0426 87.244 20.9386 95.5722 25.8188V66.3276C92.4785 68.1426 89.389 69.9555 86.3032 71.7662L86.2735 71.7836L86.1949 71.8297L86.1403 71.8617C77.8274 76.7396 69.5411 81.6018 61.2702 86.4484C53.7238 82.0324 46.2402 77.6418 38.7288 73.235L38.7162 73.2276L38.6794 73.206L38.4648 73.0801C34.6053 70.8158 30.7383 68.5471 26.8513 66.2682V20.2099C25.8958 20.7598 25.0185 21.2745 24.1767 21.7683C23.4739 22.1805 22.796 22.5783 22.118 22.9698V69.1469C29.63 73.5435 37.1421 77.95 44.6709 82.3664L44.6811 82.3724L44.6999 82.3834ZM52.5529 75.475L52.5819 75.492C55.4857 77.1938 58.3913 78.8967 61.2995 80.6022C64.899 78.4913 68.4945 76.3844 72.0832 74.2815C78.2825 70.6489 84.4614 67.0282 90.6052 63.4193V28.7569C85.7112 25.8931 80.8318 23.0293 75.9524 20.1655C71.073 17.3017 66.1935 14.4379 61.2995 11.5741C56.4201 14.4231 51.5991 17.2423 46.5444 20.21V8.66577C45.3705 9.36944 44.298 9.99586 43.2852 10.5874L43.285 10.5875L43.2848 10.5876C42.76 10.8942 42.2512 11.1913 41.7526 11.4851V28.6976C48.4143 24.8099 54.8715 21.041 61.2995 17.272C63.5176 18.573 65.7273 19.8697 67.9297 21.1622L67.969 21.1852L67.9766 21.1897C73.9979 24.7231 79.9651 28.2249 85.9011 31.6949V60.5407C81.4765 63.1408 77.0519 65.7323 72.618 68.3292L72.6019 68.3386C68.8429 70.5402 65.0774 72.7456 61.2995 74.9636C53.0892 70.1263 44.9082 65.3186 36.6395 60.4813V14.4824C34.8864 15.4914 33.367 16.3817 31.9061 17.2423V63.36C38.7739 67.3996 45.6416 71.4245 52.5195 75.4554L52.5365 75.4654L52.544 75.4698L52.5529 75.475ZM76.0547 40.3009V37.4223L76.0532 37.4214C71.145 34.5431 66.2369 31.6647 61.2995 28.7567C58.8442 30.1966 56.4035 31.6291 53.9628 33.0616L53.9528 33.0674C51.5174 34.4968 49.082 35.9262 46.6321 37.3629V54.8129C51.453 57.6322 56.3032 60.4812 61.2995 63.4192C63.5451 62.0944 65.7969 60.7759 68.0577 59.4521L68.0595 59.451L68.0597 59.4509L68.0599 59.4508L68.0602 59.4506L68.0619 59.4496C70.7122 57.8977 73.3749 56.3386 76.0547 54.7536V51.8749C77.6324 50.9549 79.1518 50.0646 80.8464 49.0556V57.6025C76.7552 60.0093 72.6288 62.428 68.482 64.8586L68.4736 64.8635L68.4384 64.8842C66.0548 66.2814 63.6645 67.6824 61.2703 69.0875C59.4974 68.047 57.7287 67.0087 55.9637 65.9726L55.9622 65.9717L55.9587 65.9697C51.1808 63.1648 46.4297 60.3758 41.6942 57.6025V34.5733C47.0781 31.4061 52.4824 28.2388 57.9746 25.02L61.2703 23.0884C67.7859 26.9167 74.3308 30.745 80.8756 34.5733V43.1202C79.2102 42.1409 77.6909 41.2506 76.0547 40.3009ZM6.04814 113.692H20.102C20.8355 112.699 21.5053 111.807 22.1723 110.919L22.1726 110.919L22.1737 110.917C22.702 110.214 23.2285 109.513 23.7835 108.766C22.4421 108.766 21.1374 108.759 19.8581 108.752H19.8559H19.8538H19.8518H19.8497H19.8477H19.8456H19.8436H19.8417H19.8397H19.8378H19.8359H19.834H19.8321H19.8319H19.8317H19.8314H19.8312H19.831H19.8308H19.8306H19.8304H19.8302H19.83H19.8299H19.8297H19.8295H19.8293H19.8292H19.829H19.8289H19.8287C17.3287 108.739 14.9252 108.726 12.5345 108.766C12.0069 108.778 11.4779 108.785 10.9485 108.793H10.9482H10.9479H10.9475H10.9472H10.9469H10.9466H10.9463H10.9459H10.9456H10.9453H10.9449H10.9446H10.9443H10.9439H10.9436H10.9433H10.9429H10.9426C8.95282 108.82 6.95635 108.847 4.99629 109.151C2.07448 109.626 0.467489 111.793 0.555143 114.523C0.642797 117.223 2.27901 119.123 5.3469 119.39C7.85903 119.568 10.3841 119.588 12.9049 119.607H12.9051C14.1664 119.617 15.4266 119.627 16.6835 119.657C17.16 119.657 17.6365 119.745 18.1455 119.84L18.1459 119.84C18.417 119.89 18.6973 119.942 18.9917 119.983C18.9604 120.412 18.9375 120.774 18.914 121.144L18.914 121.144C18.8936 121.466 18.8728 121.794 18.8456 122.179H3.65226C2.39588 123.841 1.31481 125.266 0 126.987C1.92095 126.987 3.79156 126.99 5.6289 126.994H5.62925H5.6296H5.62995H5.6303H5.63065H5.63099H5.63134H5.63168H5.63202H5.63236H5.63269H5.63303H5.63336H5.63369H5.63401H5.63433H5.63465H5.63497H5.63564H5.63629H5.63694H5.63757H5.63819H5.6388H5.6394H5.63999H5.64057H5.64115H5.64171H5.64226H5.6428H5.64333H5.64386H5.64437H5.64488H5.64538C9.22375 127 12.6761 127.007 16.1284 126.987C17.2387 126.987 18.3782 126.928 19.4592 126.72C22.8485 126.067 24.6016 123.871 24.3679 120.666C24.1633 117.876 22.3226 116.303 18.8456 116.185C16.7085 116.096 14.5819 116.071 12.4595 116.046H12.4593H12.4591H12.4589H12.4588H12.4586H12.4584H12.4582H12.458H12.4578H12.4576H12.4574H12.4572H12.457H12.4568H12.4566H12.4565H12.4563H12.4561C11.0396 116.029 9.62491 116.013 8.21027 115.977C7.7428 115.977 7.28831 115.911 6.80352 115.841L6.80291 115.841H6.80284L6.80275 115.841C6.56057 115.805 6.31084 115.769 6.04814 115.74V113.692ZM68.4207 38.7877L68.4215 38.7882C69.2848 39.2946 70.1445 39.799 71 40.3012V44.901C67.5815 43.3875 64.4259 41.9927 60.9782 40.4792C60.6998 40.639 60.3663 40.8345 59.9756 41.0635L59.975 41.0638L59.9723 41.0654L59.9716 41.0658L59.9712 41.066L59.9707 41.0663L59.9698 41.0668L59.9697 41.0669L59.9692 41.0672L59.9691 41.0673C59.4178 41.3903 58.7529 41.7799 57.9687 42.2301C62.5267 43.5656 66.7049 44.812 70.9707 46.0881V51.875C69.5098 52.7348 68.017 53.6076 66.5071 54.4903L66.5045 54.4918C64.7842 55.4976 63.0419 56.5162 61.2996 57.5432C59.1961 56.3143 57.1283 55.0974 55.0808 53.8926C53.9146 53.2062 52.755 52.5238 51.5992 51.8453V47.5422C52.1292 47.7099 52.6515 47.8619 53.1653 48.0113L53.1654 48.0113C54.3791 48.3644 55.5454 48.7037 56.6539 49.2041C57.7173 49.6842 58.7277 50.299 59.7654 50.9306C60.2673 51.2361 60.7757 51.5454 61.2996 51.8453C61.9544 51.4736 62.6093 51.089 63.373 50.6405C63.7678 50.4087 64.1917 50.1598 64.6597 49.8867C60.1016 48.5216 55.8942 47.2752 51.6284 46.0287V40.2715C54.2564 38.7462 57.0345 37.112 59.8708 35.4436L61.2996 34.6033C63.6927 36.014 66.0703 37.4088 68.4207 38.7877ZM122.57 122.387H107.435C107.435 121.348 107.435 120.606 107.464 119.746H118.479C118.945 119.134 119.397 118.529 119.87 117.896L119.871 117.895L119.873 117.893L119.873 117.893C120.408 117.177 120.97 116.426 121.606 115.591H107.435V113.454H119.005C119.316 113.044 119.622 112.64 119.927 112.238L119.934 112.229L119.937 112.225C120.777 111.119 121.606 110.026 122.482 108.854H101.942V126.839H119.181C119.808 126.002 120.456 125.153 121.161 124.233C121.606 123.652 122.072 123.042 122.57 122.387ZM77.4863 126.809H57.0045C57.8184 125.685 58.5578 124.638 59.2972 123.59C59.593 123.171 59.8887 122.752 60.1892 122.328H67.9028C66.1789 119.746 64.5719 117.342 62.8481 114.79C61.0185 117.426 59.2246 119.989 57.4437 122.533L57.4402 122.538L57.4367 122.543L57.4333 122.548C56.4306 123.981 55.4319 125.408 54.4333 126.839H48.093C48.217 126.637 48.32 126.451 48.4154 126.28C48.5446 126.047 48.6597 125.839 48.7942 125.652C49.7955 124.217 50.7968 122.781 51.7988 121.343C54.2178 117.872 56.6411 114.394 59.0789 110.932C61.4748 107.49 64.4551 107.519 66.8217 110.962C70.1441 115.816 73.4372 120.671 76.7304 125.525L76.7321 125.528L76.7339 125.53L76.7357 125.533L76.7374 125.535L76.7392 125.538L76.7409 125.541L76.7427 125.543L76.7445 125.546L76.7462 125.548L76.748 125.551L76.7498 125.554L76.7515 125.556L76.7559 125.562C76.807 125.652 76.8582 125.742 76.9111 125.837C77.07 126.119 77.2453 126.431 77.4863 126.809ZM32.286 126.868V122.09C33.6575 122.09 35.0057 122.114 36.3362 122.137H36.3365C38.9457 122.183 41.4869 122.228 44.0024 122.09C47.9761 121.823 50.4596 119.241 50.6057 115.858C50.7518 112.475 48.4436 109.507 44.4991 109.181C41.2509 108.913 37.9885 108.974 34.6728 109.037H34.6726C33.2165 109.064 31.75 109.092 30.2699 109.092C29.7717 109.751 29.2345 110.45 28.6543 111.205L28.6539 111.205L28.6526 111.207C28.1104 111.913 27.5305 112.667 26.9099 113.484H28.7798C29.8451 113.484 30.9103 113.479 31.9756 113.474H31.976C35.5271 113.459 39.0781 113.443 42.6292 113.603C43.4765 113.632 45.0835 113.929 45.0835 115.532C45.0835 117.134 43.4765 117.55 42.5999 117.609C40.3417 117.78 38.0529 117.751 35.7667 117.721C34.8879 117.709 34.0095 117.698 33.1333 117.698H26.9099V126.868H32.286ZM99.7505 108.766C99.1039 109.636 98.5037 110.436 97.9141 111.222C97.3581 111.963 96.8116 112.691 96.2443 113.455H87.3036C84.1481 113.484 81.9567 115.265 81.8983 117.847C81.8398 120.399 84.002 122.298 87.1867 122.358C90.2156 122.402 93.2444 122.397 96.4188 122.391H96.4191H96.4195H96.4198H96.4202H96.4205H96.4209H96.4212H96.4215H96.4219H96.4223H96.4226H96.423H96.4233H96.4252H96.427H96.4289H96.4308H96.4327H96.4347H96.4367H96.4386C97.5142 122.389 98.6065 122.387 99.7213 122.387C98.4649 124.049 97.4131 125.444 96.4196 126.779C95.1897 126.779 93.9653 126.814 92.7482 126.848C90.0334 126.923 87.3551 126.998 84.7324 126.69C79.7654 126.097 76.4345 122.15 76.4053 117.728C76.4053 113.306 79.59 109.982 84.9077 109.003C85.8135 108.825 86.7485 108.825 87.6542 108.825C91.5694 108.766 95.4847 108.766 99.7505 108.766ZM30.0639 106.082L30.0641 106.082L30.0643 106.082L30.0644 106.082L30.0645 106.082L30.0646 106.082L30.0648 106.082L30.0649 106.082L30.065 106.082L30.0651 106.082L30.0652 106.082L30.0653 106.082L30.0654 106.083C30.4128 106.134 30.7549 106.185 31.0879 106.243C31.5232 106.174 31.9489 106.121 32.365 106.07L32.3652 106.07C33.2058 105.966 34.0072 105.868 34.7694 105.649C36.99 105.056 38.0418 103.453 38.0418 101.168C38.0126 98.9425 37.0192 97.1322 34.8279 96.8652C32.3443 96.5684 29.7439 96.5981 27.2604 96.9839C25.1275 97.3103 24.3386 99.1205 24.3678 101.317C24.397 103.453 25.3028 104.937 27.3188 105.531C28.2254 105.809 29.1624 105.948 30.0639 106.082ZM31.5554 103.727C31.4093 103.724 31.2632 103.72 31.1172 103.72C27.9324 103.72 26.7929 102.889 27.2604 100.693C27.4065 100.04 28.1369 99.2096 28.7505 99.0315C29.9484 98.7051 31.234 98.7051 32.4904 98.7644C34.0097 98.8238 35.2661 99.2986 35.2369 101.257C35.2077 103.216 33.9221 103.572 32.432 103.72C32.1398 103.74 31.8476 103.733 31.5554 103.727ZM93.0887 105.946H89.6702C90.2299 105.172 90.7745 104.408 91.3112 103.654L91.3117 103.654C93.0164 101.261 94.642 98.9796 96.4196 96.8354C96.741 96.4199 98.757 96.687 99.2245 97.2806C100.694 99.1669 102.035 101.155 103.417 103.203L103.417 103.204L103.418 103.204L103.418 103.205L103.419 103.206L103.419 103.206L103.419 103.207L103.42 103.207C104.015 104.09 104.619 104.985 105.243 105.887H94.5789C94.8306 105.529 95.0606 105.193 95.2853 104.865L95.2859 104.864C95.5826 104.431 95.8701 104.011 96.1859 103.572H100.218L99.8058 102.951C99.0214 101.768 98.3368 100.736 97.5883 99.5955C97.0326 100.379 96.495 101.141 95.9665 101.89L95.9637 101.894L95.9636 101.894L95.9607 101.899C94.9909 103.273 94.0521 104.603 93.0887 105.946ZM113.834 105.916V100.367C114.89 101.32 115.865 102.214 116.803 103.074L116.808 103.079L116.809 103.08L116.81 103.08C117.738 103.931 118.631 104.749 119.531 105.56C120.758 106.629 122.248 106.154 122.307 104.611C122.388 102.745 122.37 100.893 122.352 99.0257V99.0255V99.0253V99.0251V99.0249V99.0247V99.0245V99.0243V99.0241V99.0239V99.0237V99.0232V99.0228V99.0224V99.022V99.0216V99.0212V99.0208V99.0203V99.0199C122.344 98.2163 122.336 97.4098 122.336 96.5978H119.677V102.058C118.969 101.42 118.294 100.806 117.64 100.21C116.378 99.0605 115.192 97.9795 113.98 96.9243C112.957 96.034 111.584 95.8856 111.408 97.4288C111.201 99.4061 111.244 101.428 111.286 103.442V103.442C111.303 104.269 111.321 105.095 111.321 105.916H113.834ZM85.6965 96.5681H88.4722V105.946H85.755V102.385H80.0867V105.916H77.3109V96.5978H79.9698V99.7732H85.6673C85.6965 98.6752 85.6965 97.6662 85.6965 96.5681ZM60.0321 99.513C61.2462 98.5865 62.4432 97.673 63.6661 96.7464C60.7287 95.6305 58.9959 97.1711 57.1867 98.7797C56.6384 99.2672 56.083 99.7609 55.4851 100.189V96.5387H52.797V105.857H55.6019V102.029C56.1865 102.479 56.733 102.985 57.2717 103.484C59.1833 105.255 60.998 106.935 64.0752 105.708C62.1176 104.136 60.1599 102.563 58.1731 100.931C58.8008 100.453 59.4186 99.9811 60.0321 99.513ZM75.3473 97.4172L75.345 97.4201L75.3429 97.4229C74.925 97.971 74.5756 98.4294 74.2138 98.9129C73.7445 98.9129 73.2671 98.8856 72.7898 98.8584C71.6922 98.7957 70.5951 98.733 69.5974 99.0019C68.5163 99.2987 67.0554 100.337 66.8801 101.257C66.5587 102.89 68.078 103.513 69.5974 103.542C70.9169 103.562 72.249 103.556 73.6838 103.549H73.6843H73.6849H73.6855H73.6861H73.6868H73.6874H73.6881C74.444 103.546 75.2284 103.542 76.0546 103.542C75.7185 104.012 75.4228 104.42 75.1383 104.812L75.1382 104.812L75.1331 104.819C74.8258 105.243 74.5316 105.649 74.2138 106.095C73.5302 106.055 72.8401 106.032 72.1478 106.009L72.1473 106.009L72.1468 106.009L72.1463 106.009L72.1458 106.009L72.1453 106.009L72.1448 106.009L72.1443 106.009H72.1442C70.7664 105.963 69.3801 105.916 68.0196 105.739C65.5945 105.382 63.8998 103.335 63.8998 101.109C63.8998 98.8535 65.6237 97.0432 68.1657 96.6278C68.7793 96.5387 69.4221 96.4794 70.0356 96.4497H76.0838C75.8108 96.8091 75.5694 97.1258 75.3473 97.4172ZM49.5831 106.094C50.2259 105.264 50.7518 104.581 51.5115 103.542C50.7692 103.542 50.06 103.563 49.3749 103.583C47.741 103.631 46.2443 103.674 44.7621 103.424C44.1291 103.323 43.563 102.719 42.9913 102.109C42.7187 101.819 42.4448 101.526 42.1617 101.287C42.4351 101.037 42.6971 100.744 42.9584 100.451L42.9585 100.451C43.5349 99.8062 44.1078 99.1651 44.7914 99.0018C45.8721 98.7325 47.0241 98.7957 48.1677 98.8585C48.6627 98.8857 49.1561 98.9128 49.6416 98.9128C50.2259 98.0818 50.7226 97.3992 51.307 96.598C50.4731 96.598 49.6629 96.5846 48.8701 96.5715C47.0241 96.541 45.2724 96.512 43.535 96.6573C41.0514 96.8651 39.3568 98.7644 39.2984 100.96C39.2399 103.275 40.9054 105.382 43.4181 105.738C44.7774 105.936 46.1624 105.976 47.5304 106.015C48.2208 106.035 48.9069 106.055 49.5831 106.094ZM13.8785 96.5386H16.5666V103.513H23.9003C23.5562 103.966 23.2621 104.357 22.9962 104.71L22.9936 104.714L22.9924 104.715C22.6504 105.17 22.355 105.563 22.0596 105.946H13.8785V96.5386ZM106.558 96.5681V105.916H109.217V96.5681H106.558ZM76.0253 44.0999C76.1943 44.1964 76.3595 44.2891 76.5277 44.3835L76.5281 44.3837L76.5294 44.3844L76.5303 44.3849C76.8267 44.5512 77.1328 44.723 77.4862 44.9309C77.2323 45.0802 77.009 45.2171 76.7966 45.3473C76.5447 45.5017 76.3082 45.6467 76.0545 45.7916C75.9376 45.7248 75.8243 45.6598 75.711 45.5948L75.7107 45.5947L75.7101 45.5944L75.7095 45.594C75.3704 45.3996 75.0312 45.205 74.5936 44.9606C74.9431 44.7364 75.2462 44.5592 75.5322 44.3921C75.7005 44.2937 75.8629 44.1988 76.0253 44.0999ZM77.3598 47.4102C77.5059 47.3277 77.652 47.2453 77.8078 47.1563C77.7742 46.8324 77.7503 46.5477 77.725 46.2459L77.7249 46.2453C77.7061 46.0219 77.6866 45.7891 77.6617 45.5242C77.3592 45.6859 77.1175 45.8299 76.8892 45.966L76.8889 45.9661C76.6983 46.0797 76.5171 46.1877 76.3177 46.2957C76.325 46.4292 76.3323 46.5591 76.3396 46.6889C76.3615 47.0784 76.3834 47.4679 76.4053 47.9575C76.7755 47.7399 77.0676 47.575 77.3598 47.4102ZM74.36 47.2456V45.5837C74.8567 45.8508 75.2657 46.0586 75.704 46.2663V47.9282L74.36 47.2456ZM4.31878 96.5094C5.93784 96.4776 7.53376 96.4463 9.11596 96.5684C12.0085 96.8058 12.7974 98.7051 11.5118 100.515C12.5345 100.515 12.3007 103.602 11.9793 104.492C11.7164 105.234 10.4308 105.768 9.58345 105.827C7.42124 105.954 5.25903 105.931 3.04419 105.906C2.14638 105.897 1.23993 105.887 0.321322 105.887V99.8031H9.29127C9.27665 99.6844 9.26204 99.5582 9.24743 99.4321C9.23282 99.306 9.21822 99.1799 9.20361 99.0612H0.175232C0.820585 98.2184 1.28412 97.5973 1.72361 97.0083C1.84126 96.8507 1.95718 96.6953 2.07441 96.5387C2.82801 96.5387 3.57583 96.524 4.31878 96.5094ZM3.18469 103.394H7.83036C8.29785 103.394 9.14517 103.394 9.14517 102.593C9.14517 102.118 3.09704 102.237 3.09704 102.237C3.09704 102.237 3.15547 103.127 3.18469 103.394Z" fill="white"/>
</svg>
