<svg xmlns="http://www.w3.org/2000/svg" viewBox="0 0 266.92 66.98"><defs><style>.cls-1{fill:#e0e0e0;}.cls-2{fill:#efefef;}.cls-3{fill:#858585;}</style></defs><g id="Layer_2" data-name="Layer 2"><g id="Layer_1-2" data-name="Layer 1"><path class="cls-1" d="M8.42,22.47A8.4,8.4,0,1,0,0,14.07,8.39,8.39,0,0,0,8.42,22.47Z"/><path class="cls-2" d="M46.78,22.47H35.18a2.62,2.62,0,0,1-2.6-2.6V8.23a2.61,2.61,0,0,1,2.6-2.6h11.6a2.62,2.62,0,0,1,2.6,2.6V19.87A2.58,2.58,0,0,1,46.78,22.47Z"/><path class="cls-3" d="M16.79,29.65H3.56A3.56,3.56,0,0,0,0,33.22v26.5a3.56,3.56,0,0,0,3.56,3.57h9.68a3.56,3.56,0,0,0,3.56-3.57V50.06a3.56,3.56,0,0,1,3.56-3.57h9.17a3.56,3.56,0,0,0,3.56-3.57v-9.7a3.56,3.56,0,0,0-3.56-3.57Z"/><path class="cls-1" d="M81.05,0H86V29.32H81.05Z"/><path class="cls-1" d="M91.27,10.12h4.94V12a5.82,5.82,0,0,1,4.65-2.27,6.73,6.73,0,0,1,5.49,3,6.71,6.71,0,0,1,5.7-3,7.11,7.11,0,0,1,7.08,7.43V29.31h-4.94V17.56a3.24,3.24,0,0,0-3.18-3.4,3.37,3.37,0,0,0-3.31,3.61V29.32h-4.94V17.56a3.25,3.25,0,0,0-3.27-3.4,3.33,3.33,0,0,0-3.23,3.61V29.32h-5V10.12Z"/><path class="cls-1" d="M123.69,10.12h4.94v2.06a8.36,8.36,0,0,1,6.07-2.44,9.71,9.71,0,0,1,9.42,10,9.71,9.71,0,0,1-9.42,10,8.31,8.31,0,0,1-6.07-2.44V38.14h-4.94Zm15.54,9.62a5.47,5.47,0,1,0-5.45,5.5A5.45,5.45,0,0,0,139.23,19.74Z"/><path class="cls-1" d="M146.6,19.74a10.12,10.12,0,1,1,10.14,10A9.95,9.95,0,0,1,146.6,19.74Zm15.45,0a5.39,5.39,0,0,0-10.77,0,5.39,5.39,0,1,0,10.77,0Z"/><path class="cls-1" d="M168.84,26.84l2.76-3.4a6.82,6.82,0,0,0,4.61,2.23c1.51,0,2.43-.8,2.43-1.85,0-1.34-1.55-1.68-3.85-2.48-3-1.05-5.49-2.39-5.49-5.75,0-3.91,3.35-5.88,7-5.88a8.77,8.77,0,0,1,6.58,2.73L180,15.38a5.88,5.88,0,0,0-3.85-1.85c-1.21,0-2,.63-2,1.64,0,1.3,1.38,1.68,3.6,2.39,2.85,1,5.74,2.27,5.74,6.09s-3,6-7.16,6A10.71,10.71,0,0,1,168.84,26.84Z"/><path class="cls-1" d="M185.22,26.84l2.76-3.4a6.82,6.82,0,0,0,4.61,2.23c1.51,0,2.43-.8,2.43-1.85,0-1.34-1.55-1.68-3.85-2.48-3-1.05-5.49-2.39-5.49-5.75,0-3.91,3.35-5.88,7-5.88a8.77,8.77,0,0,1,6.58,2.73l-2.89,2.94a5.88,5.88,0,0,0-3.85-1.85c-1.21,0-2,.63-2,1.64,0,1.3,1.38,1.68,3.6,2.39,2.85,1,5.74,2.27,5.74,6.09s-3,6-7.16,6A10.71,10.71,0,0,1,185.22,26.84Z"/><path class="cls-1" d="M203.14,3.86A2.89,2.89,0,1,1,206,6.72,2.89,2.89,0,0,1,203.14,3.86Zm.46,6.26h4.86v19.2H203.6Z"/><path class="cls-1" d="M218.35,26.84l-.13,2.48h-4.61V0h4.94V12.31a7.91,7.91,0,0,1,6.12-2.65,9.75,9.75,0,0,1,9.59,10,9.75,9.75,0,0,1-9.59,10A8,8,0,0,1,218.35,26.84Zm11-7.14a5.49,5.49,0,1,0-11,0,5.49,5.49,0,1,0,11,0Z"/><path class="cls-1" d="M238.12,0H243V29.32h-4.9Z"/><path class="cls-1" d="M266.89,20.58H251.81a5.44,5.44,0,0,0,5.4,5.12,5.59,5.59,0,0,0,4.9-2.77l3.94,1.64a9.45,9.45,0,0,1-8.8,5.12,9.85,9.85,0,0,1-10.26-10,9.85,9.85,0,0,1,10.09-10,9.52,9.52,0,0,1,9.84,9.79Zm-14.57-3.74h9.38a4.68,4.68,0,0,0-4.56-3.15A4.87,4.87,0,0,0,252.32,16.84Z"/><path class="cls-1" d="M81.05,37.26H99.27v5H86v7.23H97.76v5H86V66.59H81.05Z"/><path class="cls-1" d="M102.41,41.12A2.89,2.89,0,1,1,105.3,44,2.89,2.89,0,0,1,102.41,41.12Zm.46,6.26h4.86v19.2h-4.86Z"/><path class="cls-1" d="M112.88,47.38h4.9v1.76A7.13,7.13,0,0,1,122.89,47a7,7,0,0,1,6.87,7.18V66.61h-4.94V54.81a3.36,3.36,0,0,0-3.48-3.44,3.47,3.47,0,0,0-3.6,3.44v11.8h-4.9V47.37h0Z"/><path class="cls-1" d="M133.19,57c0-5.54,4.31-10,9.47-10a8,8,0,0,1,6.24,2.65V47.39h4.94v19.2h-4.61l-.13-2.48A7.82,7.82,0,0,1,142.65,67,9.75,9.75,0,0,1,133.19,57ZM149,57a5.47,5.47,0,1,0-5.45,5.54A5.51,5.51,0,0,0,149,57Z"/><path class="cls-1" d="M159,47.38h4.9v1.76A7.13,7.13,0,0,1,169,47a7,7,0,0,1,6.87,7.18V66.61h-4.94V54.81a3.36,3.36,0,0,0-3.48-3.44,3.47,3.47,0,0,0-3.6,3.44v11.8h-4.9V47.37h0Z"/><path class="cls-1" d="M179.27,57a10.16,10.16,0,0,1,14.2-9.16v5.5a5.26,5.26,0,0,0-4.06-1.85A5.36,5.36,0,0,0,184,57a5.3,5.3,0,0,0,5.4,5.46,5.21,5.21,0,0,0,4.06-1.85v5.54A10.16,10.16,0,0,1,179.27,57Z"/><path class="cls-1" d="M216.25,57.84H201.17a5.44,5.44,0,0,0,5.4,5.12,5.59,5.59,0,0,0,4.9-2.77l3.94,1.64a9.45,9.45,0,0,1-8.8,5.12,10,10,0,1,1-.17-20,9.52,9.52,0,0,1,9.84,9.79ZM201.64,54.1H211A4.69,4.69,0,0,0,206.45,51,4.9,4.9,0,0,0,201.64,54.1Z"/></g></g></svg>