<svg xmlns="http://www.w3.org/2000/svg" viewBox="0 0 809.44 211.32"><defs><style>.cls-1{fill:#e0e0e0;}</style></defs><g id="Layer_2" data-name="Layer 2"><g id="Layer_1-2" data-name="Layer 1"><polygon class="cls-1" points="500.56 107.1 500.56 92.31 506.42 92.31 506.42 87.08 487.96 87.08 487.96 92.31 493.82 92.31 493.82 107.1 500.56 107.1"/><path class="cls-1" d="M648,102.06h1.82l3.4,5h7.2l-4.21-6.17a6.79,6.79,0,0,0,2.8-2.54,7.08,7.08,0,0,0,1-3.75A6.91,6.91,0,0,0,655.66,88a11.84,11.84,0,0,0-4.84-.92h-9.61v20H648v-5Zm0-9.78h2.45a3.05,3.05,0,0,1,2.06.61,2.54,2.54,0,0,1,0,3.46,3,3,0,0,1-2.06.61H648Z"/><path class="cls-1" d="M563.17,87.08v11a9.25,9.25,0,0,0,2.57,7,11.57,11.57,0,0,0,14.34,0,9.21,9.21,0,0,0,2.57-7v-11H576v10.8a5.23,5.23,0,0,1-.78,3.2,3.08,3.08,0,0,1-4.54,0,5.22,5.22,0,0,1-.79-3.2V87.08Z"/><path class="cls-1" d="M545.37,63.08V19.64H510.48a12.6,12.6,0,0,0-12.6,12.6V63.08h10V32.18a2.55,2.55,0,0,1,.77-1.85,2.49,2.49,0,0,1,1.84-.77h24.91V63.08Z"/><path class="cls-1" d="M637.65,52.27a2.9,2.9,0,0,1-2.11.89H603.25v9.92h33.48a12,12,0,0,0,8.82-3.76,12.24,12.24,0,0,0,3.6-9l0-13.62H612.53V32.42a2.93,2.93,0,0,1,1-2,2.9,2.9,0,0,1,2.11-.89h33.49V19.64H615.62a12,12,0,0,0-8.82,3.76,12.2,12.2,0,0,0-3.6,9V46h35.4v4.62A3.39,3.39,0,0,1,637.65,52.27Z"/><path class="cls-1" d="M808.29,36.9V19.64H772.51a12,12,0,0,0-8.91,3.76,12.27,12.27,0,0,0-3.72,8.88V63.09h9.92V49.45h20.77l7.27,13.64h9.9L800.5,48.61a12,12,0,0,0,4.2-2.83A12.18,12.18,0,0,0,808.29,36.9Zm-9.92,0a2.45,2.45,0,0,1-2.44,2.6H769.8V32.29a2.53,2.53,0,0,1,.84-1.88,2.45,2.45,0,0,1,1.88-.84h25.86V36.9Z"/><polygon class="cls-1" points="683.65 63.08 683.65 29.56 701.65 29.56 701.65 19.64 655.1 19.64 655.1 29.56 673.73 29.56 673.73 63.08 683.65 63.08"/><path class="cls-1" d="M802.19,102.14a5.31,5.31,0,0,1-2,.27,12.61,12.61,0,0,1-3.4-.5,13.36,13.36,0,0,1-3.2-1.33l-2.18,4.92a12.92,12.92,0,0,0,3.87,1.5,21.07,21.07,0,0,0,4.84.56,13,13,0,0,0,5.11-.9,7.06,7.06,0,0,0,3.15-2.43,5.84,5.84,0,0,0,1.06-3.42,4.88,4.88,0,0,0-1.16-3.43,6.67,6.67,0,0,0-2.73-1.82,27.1,27.1,0,0,0-3.86-1,14.83,14.83,0,0,1-2.54-.65c-.51-.2-.77-.5-.77-.9,0-.84.86-1.26,2.6-1.26a12.39,12.39,0,0,1,5.57,1.48l2-4.89a12.24,12.24,0,0,0-3.51-1.3,18.19,18.19,0,0,0-4-.44,13.21,13.21,0,0,0-5.11.89,6.93,6.93,0,0,0-3.15,2.43,5.92,5.92,0,0,0-1.06,3.43,4.94,4.94,0,0,0,1.14,3.44,6.51,6.51,0,0,0,2.69,1.82,28.81,28.81,0,0,0,3.86,1,19,19,0,0,1,2.59.68c.52.21.79.52.79.94A.87.87,0,0,1,802.19,102.14Z"/><path class="cls-1" d="M753.91,63.08V19.64H720.18a12.15,12.15,0,0,0-8.91,3.85,12.31,12.31,0,0,0-3.67,9.06V63.09h9.92v-11H744v11ZM717.53,42.14V31.89a2.4,2.4,0,0,1,.77-1.7,2.6,2.6,0,0,1,1.88-.66H744v12.6Z"/><polygon class="cls-1" points="734.24 92.17 734.24 87.08 717.97 87.08 717.97 107.1 734.6 107.1 734.6 102 724.6 102 724.6 99.38 733.06 99.38 733.06 94.51 724.6 94.51 724.6 92.17 734.24 92.17"/><path class="cls-1" d="M597.24,41.37h-9.92V53.2H561.25V32.42A3,3,0,0,1,564,29.56h31.34V19.64H564a12.23,12.23,0,0,0-9,3.76,12.31,12.31,0,0,0-3.76,9V63.08h45.91V41.37Z"/><path class="cls-1" d="M364.53,59.24a12.31,12.31,0,0,0,3.67-9.06V19.64H333a12.15,12.15,0,0,0-8.91,3.85,12.31,12.31,0,0,0-3.67,9.06V50.19A12.84,12.84,0,0,0,333,63.1h22.59A12.2,12.2,0,0,0,364.53,59.24Zm-28.45-6.07v0h-3a2.68,2.68,0,0,1-1.88-.66,2.43,2.43,0,0,1-.77-1.7v-19a2.47,2.47,0,0,1,.77-1.7,2.66,2.66,0,0,1,1.88-.66h3v0h22.2V50.84a2.47,2.47,0,0,1-.77,1.7,2.68,2.68,0,0,1-1.88.66h-3v0Z"/><rect class="cls-1" x="481.99" y="19.64" width="9.92" height="43.44"/><polygon class="cls-1" points="352.6 92.17 352.6 87.08 336.33 87.08 336.33 107.1 352.96 107.1 352.96 102 342.96 102 342.96 99.38 351.42 99.38 351.42 94.51 342.96 94.51 342.96 92.17 352.6 92.17"/><polygon class="cls-1" points="263.91 87.08 256.66 87.08 265.11 107.1 271.75 107.1 280.21 87.08 273.58 87.08 268.69 98.77 263.91 87.08"/><path class="cls-1" d="M314.5,63.08V19.64H270a12.6,12.6,0,0,0-12.6,12.6V63.08h10V32.18a2.55,2.55,0,0,1,.77-1.85,2.49,2.49,0,0,1,1.84-.77h11V63.08h9.92V29.56h13.59V63.08Z"/><polygon class="cls-1" points="417.6 98 425.2 107.1 430.75 107.1 430.75 87.08 424.18 87.08 424.18 96.18 416.57 87.08 411.03 87.08 411.03 107.1 417.6 107.1 417.6 98"/><path class="cls-1" d="M476,63.08V19.64H441.14a12.6,12.6,0,0,0-12.6,12.6V63.08h10V32.18a2.55,2.55,0,0,1,.77-1.85,2.49,2.49,0,0,1,1.84-.77H466V63.08Z"/><path class="cls-1" d="M422.58,36.9V19.64H386.8a12,12,0,0,0-8.91,3.76,12.27,12.27,0,0,0-3.72,8.88V63.09h9.92V49.45h20.77l7.27,13.64H422l-7.24-14.48a12,12,0,0,0,4.2-2.83A12.22,12.22,0,0,0,422.58,36.9Zm-9.92,0a2.45,2.45,0,0,1-2.44,2.6H384.08V32.29a2.53,2.53,0,0,1,.84-1.88,2.45,2.45,0,0,1,1.88-.84h25.86V36.9Z"/><path class="cls-1" d="M136.38,83,0,211.32,128.31,74.93a19.23,19.23,0,0,0,.58-25.7L86.63,0l49.81,42.77a19.24,19.24,0,0,0,25.05,0L211.3,0,168.53,49.81a19.24,19.24,0,0,0,0,25l42.77,49.81L162.08,82.42A19.21,19.21,0,0,0,136.38,83Z"/></g></g></svg>