<svg xmlns="http://www.w3.org/2000/svg" xmlns:xlink="http://www.w3.org/1999/xlink" viewBox="0 0 182.9 61.53"><defs><style>.cls-1{fill:url(#linear-gradient);}.cls-2{fill:url(#linear-gradient-2);}.cls-3{fill:url(#linear-gradient-3);}.cls-4{fill:url(#linear-gradient-4);}.cls-5{fill:url(#linear-gradient-5);}.cls-6{fill:url(#linear-gradient-6);}</style><linearGradient id="linear-gradient" x1="143.97" y1="819.75" x2="143.97" y2="725.56" gradientTransform="matrix(1, 0, 0, -1, 0, 826.24)" gradientUnits="userSpaceOnUse"><stop offset="0" stop-color="#e0e0e0"/><stop offset="0.12" stop-color="#ddd"/><stop offset="0.23" stop-color="#d2d2d2"/><stop offset="0.33" stop-color="#c1c1c1"/><stop offset="0.42" stop-color="#a8a8a8"/><stop offset="0.51" stop-color="#898989"/><stop offset="0.59" stop-color="#666"/></linearGradient><linearGradient id="linear-gradient-2" x1="167.24" y1="819.75" x2="167.24" y2="725.56" xlink:href="#linear-gradient"/><linearGradient id="linear-gradient-3" x1="118.41" y1="819.75" x2="118.41" y2="725.56" xlink:href="#linear-gradient"/><linearGradient id="linear-gradient-4" x1="82.69" y1="819.75" x2="82.69" y2="725.56" xlink:href="#linear-gradient"/><linearGradient id="linear-gradient-5" x1="26.82" y1="819.75" x2="26.82" y2="725.56" xlink:href="#linear-gradient"/><linearGradient id="linear-gradient-6" x1="26.8" y1="819.75" x2="26.8" y2="725.56" xlink:href="#linear-gradient"/></defs><g id="Layer_2" data-name="Layer 2"><g id="Layer_1-2" data-name="Layer 1"><polygon class="cls-1" points="140.29 14.57 140.29 52.42 147.61 52.42 147.61 21.63 147.64 14.56 140.32 14.55 140.29 14.57"/><polygon class="cls-2" points="182.9 52.34 171.42 33.16 182.52 14.63 174.23 14.57 167.26 26.21 160.3 14.6 160.26 14.57 151.97 14.64 156.22 21.69 163.09 33.16 155.84 45.28 151.58 52.33 159.87 52.4 159.91 52.38 167.26 40.11 174.61 52.4 182.9 52.34"/><polygon class="cls-3" points="133.41 43.75 133.41 14.82 126.1 14.82 126.1 36.65 110.63 21.63 110.57 21.57 103.33 14.55 103.31 14.57 103.31 24.71 103.31 52.42 110.63 52.42 110.63 31.82 126.16 46.9 133.5 54.04 133.46 43.8 133.41 43.75"/><path class="cls-4" d="M89.91,27.21V38.9h0a7.24,7.24,0,0,1-14.46,0h0V14.82H68.16V38.91h0c0,.13,0,.26,0,.38,0,7.69,6.51,13.93,14.53,13.93S97.22,47,97.22,39.29c0-.13,0-.26,0-.38h0V14.82H89.91V27.21Z"/><path class="cls-5" d="M26.81,39.12A8.14,8.14,0,0,0,35,31a8.45,8.45,0,0,0-.14-1.53,8.14,8.14,0,0,0-16,0A8.6,8.6,0,0,0,18.68,31,8.13,8.13,0,0,0,26.81,39.12Z"/><path class="cls-6" d="M42.83.53a1.6,1.6,0,0,0-1-.52,2.19,2.19,0,0,0-2.21,2.42v9.62h0V40c-1.1,5-6.41,8.87-12.81,8.87S15,44.91,14,39.79V2.43A2.2,2.2,0,0,0,11.76,0a1.71,1.71,0,0,0-1,.52L.76,10.72A2.67,2.67,0,0,0,0,12.59V40.81a24.64,24.64,0,0,0,1.14,3.72h0a27.37,27.37,0,0,0,25.64,17,27.37,27.37,0,0,0,25.64-17,24.64,24.64,0,0,0,1.14-3.72h0V12.59a2.67,2.67,0,0,0-.76-1.87Z"/></g></g></svg>