<svg id="Layer_1" data-name="Layer 1" xmlns="http://www.w3.org/2000/svg" viewBox="0 0 248.2 29.17"><defs><style>.cls-1{fill:#bbb;}.cls-2{fill:#fff;}</style></defs><rect class="cls-1" x="156.31" width="0.55" height="29.17"/><path class="cls-1" d="M168.61,15.2v0a5.69,5.69,0,0,1,5.84-5.79,5.75,5.75,0,0,1,4.42,1.73l-1.57,1.8a4.13,4.13,0,0,0-2.86-1.26,3.32,3.32,0,0,0-3.25,3.49v0a3.33,3.33,0,0,0,3.25,3.52,4,4,0,0,0,2.94-1.31L179,19a5.91,5.91,0,0,1-10.34-3.76Z"/><path class="cls-1" d="M185.72,9.49H188l4.8,11.28h-2.58l-1-2.51h-4.74l-1,2.51h-2.52Zm2.59,6.59-1.49-3.63-1.49,3.63Z"/><path class="cls-1" d="M195.79,9.57h4.58c2.67,0,4.29,1.58,4.29,3.87v0c0,2.6-2,3.94-4.53,3.94h-1.87v3.36h-2.47Zm4.42,5.65a1.74,1.74,0,0,0,1.95-1.7v0c0-1.1-.76-1.7-2-1.7h-1.9v3.43Z"/><path class="cls-1" d="M208.51,9.57H211v11.2h-2.47Z"/><path class="cls-1" d="M218.31,11.84H214.9V9.57h9.28v2.27h-3.41v8.93h-2.46Z"/><path class="cls-1" d="M230.07,9.49h2.27l4.8,11.28h-2.57l-1-2.51H228.8l-1,2.51h-2.51Zm2.59,6.59-1.49-3.63-1.49,3.63Z"/><path class="cls-1" d="M240.15,9.57h2.46v9h5.59v2.24h-8Z"/><path class="cls-2" d="M12,.7,0,7.64V21.53l12,6.94,12-6.94V7.64ZM23,20.92,12,27.25l-11-6.33V8.25L12,1.92,23,8.25Z"/><polygon class="cls-2" points="16.74 6.7 7.29 6.7 6.2 11.51 17.88 11.51 16.74 6.7"/><polygon class="cls-2" points="8.97 18.14 8.97 14.94 6.17 13.16 3 15.52 7.32 23.03 9.04 23.03 11.08 21.13 11.08 20.17 8.97 18.14"/><polygon class="cls-2" points="15.1 12.24 8.98 12.24 10.01 14.93 9.69 17.95 12.03 17.95 14.38 17.94 14.09 14.93 15.1 12.24"/><polygon class="cls-2" points="17.9 13.14 15.13 14.94 15.13 18.14 13.02 20.17 13.02 21.13 15.05 23 16.76 23 21.05 15.52 17.9 13.14"/><path class="cls-2" d="M37.53,21A5.46,5.46,0,0,1,32,15.46a5.52,5.52,0,0,1,5.55-5.61,5.35,5.35,0,0,1,4.27,1.84L40.3,13.33A3.59,3.59,0,0,0,37.53,12a3.21,3.21,0,0,0-3.08,3.42,3.25,3.25,0,0,0,3.2,3.46,3.76,3.76,0,0,0,2.77-1.34L41.9,19A5.39,5.39,0,0,1,37.53,21Z"/><path class="cls-2" d="M46.55,21H44.1V9.87h2.45v2.61a3.8,3.8,0,0,1,3.79-2.61v2.59H50.2c-2.15,0-3.65,1.4-3.65,4.23Z"/><polygon class="cls-2" points="63.17 9.85 57.75 24.01 55.27 24.01 56.45 21.01 51.81 9.85 54.42 9.85 57.59 18.09 60.63 9.85 63.17 9.85"/><path class="cls-2" d="M71,21a4.34,4.34,0,0,1-3.62-1.89V24H64.89V9.85h2.45v2a4.27,4.27,0,0,1,3.62-2c2.53,0,5,2,5,5.57S73.51,21,71,21Zm-.56-9a3.21,3.21,0,0,0-3.12,3.44,3.22,3.22,0,0,0,3.12,3.44,3.13,3.13,0,0,0,3-3.44A3.15,3.15,0,0,0,70.4,12Z"/><path class="cls-2" d="M81.32,12.18v5.24a1.17,1.17,0,0,0,1.31,1.34h1V21H81.92c-1.79,0-3-.8-3-3.14V12.18H77.51V10.07h1.36V7.14h2.45v2.93h2.27v2.11Z"/><path class="cls-2" d="M91.35,21a5.54,5.54,0,0,1-5.68-5.55A5.71,5.71,0,1,1,91.35,21Zm0-9a3.21,3.21,0,0,0-3.22,3.42,3.3,3.3,0,0,0,3.26,3.46,3.22,3.22,0,0,0,3.24-3.42A3.31,3.31,0,0,0,91.35,12Z"/><path class="cls-2" d="M120.51,21a5.53,5.53,0,0,1-5.67-5.55A5.7,5.7,0,1,1,120.51,21Zm0-9a3.21,3.21,0,0,0-3.22,3.42,3.3,3.3,0,0,0,3.26,3.46,3.22,3.22,0,0,0,3.24-3.42A3.31,3.31,0,0,0,120.51,12Z"/><path class="cls-2" d="M140.81,9.85c2.32,0,3.74,1.48,3.74,4.09V21H142.1V14.69c0-1.7-.79-2.61-2.17-2.61s-2.28.93-2.28,2.65V21H135.2V14.67c0-1.66-.81-2.59-2.17-2.59s-2.29,1-2.29,2.67V21h-2.45V9.85h2.45v1.84A3.84,3.84,0,0,1,134,9.85a3.37,3.37,0,0,1,3.18,1.88A4.38,4.38,0,0,1,140.81,9.85Z"/><path class="cls-2" d="M101.56,18.76V20a.14.14,0,0,1-.07.13l-1.07.62a.17.17,0,0,1-.14,0l-1.07-.62a.16.16,0,0,1-.07-.13V18.76a.14.14,0,0,1,.07-.12l1.07-.62a.12.12,0,0,1,.14,0l1.07.62A.12.12,0,0,1,101.56,18.76Z"/><path class="cls-2" d="M109,21a5.46,5.46,0,0,1-5.42-5.65,5.52,5.52,0,0,1,5.66-5.5,5.38,5.38,0,0,1,4.24,1.92L112,13.37A3.65,3.65,0,0,0,109.2,12a3.23,3.23,0,0,0-3.15,3.37,3.27,3.27,0,0,0,3.14,3.52,3.8,3.8,0,0,0,2.8-1.28l1.45,1.48A5.41,5.41,0,0,1,109,21Z"/></svg>