<?xml version="1.0" encoding="utf-8"?>
<!-- Generator: Adobe Illustrator 25.4.1, SVG Export Plug-In . SVG Version: 6.00 Build 0)  -->
<svg version="1.1" id="Layer_1" xmlns="http://www.w3.org/2000/svg" xmlns:xlink="http://www.w3.org/1999/xlink" x="0px" y="0px"
	 viewBox="0 0 210 80" style="enable-background:new 0 0 210 80;" xml:space="preserve">
<style type="text/css">
	.st0{fill:#FFFFFF;}
</style>
<g>
	<g>
		<g>
			<path class="st0" d="M83.9,15v-0.2c0-4.9,3.6-8.3,8.4-8.3c4.9,0,8.4,3.3,8.4,8.3v0.2c0,4.9-3.3,8.4-8.5,8.4
				C87.2,23.3,83.9,19.8,83.9,15z M96.9,14.9v-0.2c0-3.2-1.7-5.4-4.6-5.4c-2.8,0-4.6,2.1-4.6,5.4v0.2c0,3.3,1.9,5.4,4.6,5.4
				C95.1,20.4,96.9,18.2,96.9,14.9z"/>
			<path class="st0" d="M103.2,6.7h3c0.2,0,0.4,0.2,0.4,0.4v6.7l5.6-6.9c0.1-0.1,0.2-0.1,0.3-0.1h3.3c0.2,0,0.3,0.2,0.2,0.4
				l-6.2,7.4l6.5,8.3c0.1,0.2,0,0.4-0.2,0.4h-3.7c-0.1,0-0.2-0.1-0.3-0.1l-5.6-7.2v7c0,0.2-0.2,0.4-0.4,0.4h-3
				c-0.2,0-0.4-0.2-0.4-0.4V7C102.9,6.8,103,6.7,103.2,6.7z"/>
			<g>
				<path class="st0" d="M122.6,14.6L118.1,7c-0.1-0.2,0-0.4,0.3-0.4h3.5c0.1,0,0.2,0.1,0.3,0.1l2.8,4.9h0.1l2.8-4.9
					c0.1-0.1,0.2-0.1,0.3-0.1h3.5c0.2,0,0.4,0.3,0.3,0.5l-4.5,7.5l4.8,8c0.1,0.2,0,0.5-0.3,0.5h-3.6c-0.1,0-0.2-0.1-0.3-0.2l-3-5.4
					h-0.1l-3,5.4c-0.1,0.1-0.2,0.2-0.3,0.2h-3.5c-0.2,0-0.4-0.3-0.3-0.4L122.6,14.6z"/>
			</g>
		</g>
		<g>
			<path class="st0" d="M83.9,32.6c0-0.2,0.2-0.4,0.4-0.4h6.1c3.6,0,5.4,1.5,5.4,4.3v0.1c0,1.7-0.8,3-2.7,3.5
				c2.1,0.4,3.3,1.7,3.3,3.9v0.1c0,3-2,4.6-5.8,4.6h-6.4c-0.2,0-0.4-0.2-0.4-0.4V32.6z M89.7,39c1.8,0,2.5-0.6,2.5-2.1v-0.1
				c0-1.4-0.8-2-2.5-2h-2c-0.1,0-0.2,0.1-0.2,0.2v3.7c0,0.1,0.1,0.2,0.2,0.2H89.7z M90,46.1c1.8,0,2.7-0.8,2.7-2.3v-0.1
				c0-1.5-0.8-2.3-2.8-2.3h-2.1c-0.1,0-0.2,0.1-0.2,0.2v4.2c0,0.1,0.1,0.2,0.2,0.2H90z"/>
			<path class="st0" d="M98.6,31.2h2.6c0.2,0,0.4,0.2,0.4,0.4v16.7c0,0.2-0.2,0.4-0.4,0.4h-2.6c-0.2,0-0.4-0.2-0.4-0.4V31.6
				C98.2,31.4,98.4,31.2,98.6,31.2z"/>
			<path class="st0" d="M103.2,42.8v-0.2c0-3.8,2.7-6.2,6.3-6.2s6.3,2.4,6.3,6.1v0.2c0,3.8-2.7,6.2-6.3,6.2
				C106,48.9,103.2,46.5,103.2,42.8z M112.5,42.7v-0.2c0-2.3-1.1-3.7-2.9-3.7c-1.8,0-2.9,1.3-2.9,3.6v0.2c0,2.3,1.1,3.7,2.9,3.7
				C111.4,46.4,112.5,45,112.5,42.7z"/>
			<path class="st0" d="M116.8,42.8v-0.2c0-3.9,2.8-6.2,6.2-6.2c2.7,0,5.1,1.1,5.6,4.3c0,0.2-0.1,0.4-0.4,0.4h-2.5
				c-0.1,0-0.2-0.1-0.2-0.2c-0.3-1.3-1.1-1.9-2.4-1.9c-1.7,0-2.9,1.3-2.9,3.6v0.2c0,2.4,1.1,3.6,2.9,3.6c1.3,0,2.3-0.7,2.5-2.1
				c0-0.1,0.1-0.2,0.2-0.2l2.4,0c0.2,0,0.4,0.2,0.4,0.4c-0.3,2.6-2.4,4.4-5.7,4.4C119.4,48.9,116.8,46.7,116.8,42.8z"/>
			<path class="st0" d="M130.6,31.2h2.6c0.2,0,0.4,0.2,0.4,0.4v9.6c0,0.2,0.2,0.2,0.3,0.1l3.5-4.6c0-0.1,0.1-0.1,0.2-0.1h2.9
				c0.2,0,0.3,0.2,0.2,0.4l-4,5.1l4.4,6.2c0.1,0.2,0,0.4-0.2,0.4h-3.2c-0.1,0-0.2,0-0.2-0.1l-3.6-5.1c-0.1-0.1-0.3-0.1-0.3,0.1v4.7
				c0,0.2-0.2,0.4-0.4,0.4h-2.6c-0.2,0-0.4-0.2-0.4-0.4V31.6C130.2,31.4,130.4,31.2,130.6,31.2z"/>
			<path class="st0" d="M141.2,42.8v-0.2c0-3.9,2.3-6.3,5.3-6.3c1.8,0,3,0.8,3.7,1.9c0,0.1,0.1,0,0.1,0v-6.6c0-0.2,0.2-0.4,0.4-0.4
				h2.6c0.2,0,0.4,0.2,0.4,0.4v16.7c0,0.2-0.2,0.4-0.4,0.4h-2.6c-0.2,0-0.4-0.2-0.4-0.4v-1.4c0-0.1-0.1-0.1-0.1,0
				c-0.7,1.1-2.1,2-3.7,2C143.5,48.9,141.2,46.8,141.2,42.8z M150.3,42.7v-0.2c0-2.4-1.1-3.6-2.9-3.6c-1.9,0-2.9,1.3-2.9,3.6v0.2
				c0,2.4,1.1,3.6,2.8,3.6C149.1,46.3,150.3,45.1,150.3,42.7z"/>
			<path class="st0" d="M156.3,36.7h2.6c0.2,0,0.4,0.2,0.4,0.4v1.9c0.7-1.5,1.8-2.3,3.5-2.5c0.2,0,0.4,0.2,0.4,0.4v2.4
				c0,0.2-0.2,0.4-0.4,0.4c-2.2,0.1-3.5,0.9-3.5,3.1v5.7c0,0.2-0.2,0.4-0.4,0.4h-2.6c-0.2,0-0.4-0.2-0.4-0.4V37
				C155.9,36.8,156.1,36.7,156.3,36.7z"/>
			<path class="st0" d="M163.8,42.8v-0.2c0-3.8,2.7-6.2,6.2-6.2c3.1,0,5.8,1.8,5.8,6.1V43c0,0.2-0.2,0.4-0.4,0.4h-8
				c-0.1,0-0.3,0.1-0.2,0.3c0.2,1.8,1.2,2.9,3,2.9c1.4,0,2.2-0.6,2.4-1.4c0-0.1,0.2-0.2,0.3-0.2h2.4c0.2,0,0.4,0.2,0.3,0.4
				c-0.6,2.3-2.6,3.6-5.6,3.6C166.4,48.9,163.8,46.6,163.8,42.8z M172.3,41.4c0.1,0,0.3-0.1,0.2-0.3c-0.2-1.6-1.1-2.4-2.6-2.4
				c-1.4,0-2.4,0.9-2.7,2.4c0,0.1,0.1,0.3,0.2,0.3H172.3z"/>
			<path class="st0" d="M176.7,45.3c0-2.8,2.6-3.9,6.2-3.9h1.3c0,0,0.1,0,0.1-0.1V41c0-1.4-0.4-2.2-1.9-2.2c-1.2,0-1.8,0.5-2,1.4
				c0,0.2-0.2,0.3-0.3,0.3h-2.4c-0.2,0-0.4-0.2-0.4-0.4c0.4-2.6,2.6-3.7,5.3-3.7c2.9,0,5,1.2,5,4.4v7.5c0,0.2-0.2,0.4-0.4,0.4h-2.5
				c-0.2,0-0.4-0.2-0.4-0.4v-1.1c-0.7,1-1.7,1.7-3.6,1.7C178.6,48.9,176.7,47.8,176.7,45.3z M184.3,44.4v-0.9c0,0,0-0.1-0.1-0.1H183
				c-1.9,0-3.1,0.4-3.1,1.7c0,0.9,0.5,1.4,1.7,1.4C183.2,46.6,184.3,45.8,184.3,44.4z"/>
			<path class="st0" d="M190.2,36.7h2.6c0.2,0,0.4,0.2,0.4,0.4v1.3c0,0.1,0.1,0.1,0.1,0c0.6-1,1.9-1.9,3.6-1.9c1.5,0,2.7,0.6,3.3,2
				c0,0,0.1,0,0.1,0c1-1.4,2.5-2,4-2c2.2,0,3.9,1.4,3.9,4.6v7.3c0,0.2-0.2,0.4-0.4,0.4h-2.6c-0.2,0-0.4-0.2-0.4-0.4v-7
				c0-1.5-0.7-2.2-1.9-2.2c-1.3,0-2.3,0.8-2.3,2.5v6.7c0,0.2-0.2,0.4-0.4,0.4h-2.6c-0.2,0-0.4-0.2-0.4-0.4v-7c0-1.5-0.7-2.2-1.9-2.2
				c-1.3,0-2.3,0.8-2.3,2.5v6.7c0,0.2-0.2,0.4-0.4,0.4h-2.6c-0.2,0-0.4-0.2-0.4-0.4V37C189.9,36.8,190,36.7,190.2,36.7z"/>
		</g>
		<g>
			<path class="st0" d="M84.2,56.9h3.2c0.2,0,0.3,0.1,0.3,0.3l3.8,12.2c0,0.1,0.1,0.1,0.1,0l3.8-12.2c0-0.1,0.2-0.3,0.3-0.3h2.7
				c0.2,0,0.4,0.2,0.3,0.5l-5.2,15.7c0,0.1-0.2,0.2-0.3,0.2h-3.7c-0.2,0-0.3-0.1-0.3-0.2l-5.2-15.7C83.8,57.2,84,56.9,84.2,56.9z"/>
			<path class="st0" d="M98,67.5v-0.2c0-3.8,2.7-6.2,6.2-6.2c3.1,0,5.8,1.8,5.8,6.1v0.6c0,0.2-0.2,0.4-0.4,0.4h-8
				c-0.1,0-0.3,0.1-0.2,0.3c0.2,1.8,1.2,2.9,3,2.9c1.4,0,2.2-0.6,2.4-1.4c0-0.1,0.2-0.2,0.3-0.2h2.4c0.2,0,0.4,0.2,0.3,0.4
				c-0.6,2.3-2.6,3.6-5.6,3.6C100.7,73.6,98,71.3,98,67.5z M106.5,66c0.1,0,0.3-0.1,0.2-0.3c-0.2-1.6-1.1-2.4-2.6-2.4
				c-1.4,0-2.4,0.9-2.7,2.4c0,0.1,0.1,0.3,0.2,0.3H106.5z"/>
			<path class="st0" d="M112,61.3h2.6c0.2,0,0.4,0.2,0.4,0.4V63c0,0.1,0.1,0.1,0.1,0c0.6-1.1,1.9-2,3.8-2c2.4,0,4,1.4,4,4.6V73
				c0,0.2-0.2,0.4-0.4,0.4h-2.6c-0.2,0-0.4-0.2-0.4-0.4v-6.8c0-1.6-0.6-2.4-2.1-2.4c-1.4,0-2.5,0.9-2.5,2.6V73
				c0,0.2-0.2,0.4-0.4,0.4H112c-0.2,0-0.4-0.2-0.4-0.4V61.7C111.6,61.5,111.8,61.3,112,61.3z"/>
			<path class="st0" d="M125.7,69.8v-6c0,0,0-0.1-0.1-0.1h-1.1c-0.2,0-0.4-0.2-0.4-0.4v-1.6c0-0.2,0.2-0.4,0.4-0.4h1.2v-2.2
				c0-0.2,0.2-0.4,0.4-0.4h2.6c0.2,0,0.4,0.2,0.4,0.4v2.2h2.2c0.2,0,0.4,0.2,0.4,0.4v1.6c0,0.2-0.2,0.4-0.4,0.4H129
				c0,0-0.1,0-0.1,0.1v5.7c0,1,0.5,1.4,1.3,1.4c0.3,0,0.6,0,0.8-0.1c0.2-0.1,0.4,0.1,0.4,0.3V73c0,0.2-0.1,0.3-0.3,0.3
				c-0.4,0.1-1,0.2-1.8,0.2C127,73.5,125.7,72.3,125.7,69.8z"/>
			<path class="st0" d="M133.2,69v-7.4c0-0.2,0.2-0.4,0.4-0.4h2.6c0.2,0,0.4,0.2,0.4,0.4v6.9c0,1.6,0.7,2.4,2.1,2.4
				c1.4,0,2.5-0.9,2.5-2.6v-6.7c0-0.2,0.2-0.4,0.4-0.4h2.6c0.2,0,0.4,0.2,0.4,0.4V73c0,0.2-0.2,0.4-0.4,0.4h-2.6
				c-0.2,0-0.4-0.2-0.4-0.4v-1.5c-0.6,1.2-1.8,2.1-3.8,2.1C134.9,73.6,133.2,72.2,133.2,69z"/>
			<path class="st0" d="M147.1,61.3h2.6c0.2,0,0.4,0.2,0.4,0.4v1.9c0.7-1.5,1.8-2.3,3.5-2.5c0.2,0,0.4,0.2,0.4,0.4v2.4
				c0,0.2-0.2,0.4-0.4,0.4c-2.2,0.1-3.5,0.9-3.5,3.1V73c0,0.2-0.2,0.4-0.4,0.4h-2.6c-0.2,0-0.4-0.2-0.4-0.4V61.7
				C146.7,61.5,146.9,61.3,147.1,61.3z"/>
			<path class="st0" d="M154.6,67.5v-0.2c0-3.8,2.7-6.2,6.2-6.2c3.1,0,5.8,1.8,5.8,6.1v0.6c0,0.2-0.2,0.4-0.4,0.4h-8
				c-0.1,0-0.3,0.1-0.2,0.3c0.2,1.8,1.2,2.9,3,2.9c1.4,0,2.2-0.6,2.4-1.4c0-0.1,0.2-0.2,0.3-0.2h2.4c0.2,0,0.4,0.2,0.3,0.4
				c-0.6,2.3-2.6,3.6-5.6,3.6C157.2,73.6,154.6,71.3,154.6,67.5z M163.1,66c0.1,0,0.3-0.1,0.2-0.3c-0.2-1.6-1.1-2.4-2.6-2.4
				c-1.4,0-2.4,0.9-2.7,2.4c0,0.1,0.1,0.3,0.2,0.3H163.1z"/>
			<path class="st0" d="M167.8,69.6h2.4c0.2,0,0.3,0.1,0.3,0.3c0.2,0.9,0.7,1.4,2.1,1.4c1.3,0,1.9-0.5,1.9-1.3s-0.7-1.2-2.4-1.4
				c-3.2-0.5-4.4-1.4-4.4-3.7c0-2.5,2.3-3.7,4.7-3.7c2.5,0,4.4,0.9,4.9,3.3c0,0.2-0.1,0.4-0.4,0.4h-2.4c-0.2,0-0.3-0.1-0.3-0.3
				c-0.2-0.8-0.8-1.2-1.8-1.2c-1.1,0-1.7,0.5-1.7,1.2c0,0.8,0.6,1.1,2.3,1.3c3,0.4,4.7,1.2,4.7,3.8c0,2.6-1.9,3.9-5,3.9
				c-3.1,0-4.9-1.3-5.2-3.6C167.5,69.7,167.6,69.6,167.8,69.6z"/>
		</g>
	</g>
	<g>
		<path class="st0" d="M23.4,29.1H2.9c-0.6,0-1.1-0.5-1.1-1.1V7.5c0-0.6,0.5-1.1,1.1-1.1h20.5c0.6,0,1.1,0.5,1.1,1.1V28
			C24.4,28.6,24,29.1,23.4,29.1z"/>
		<path class="st0" d="M67.8,29.1H47.2c-0.6,0-1.1-0.5-1.1-1.1V7.5c0-0.6,0.5-1.1,1.1-1.1h20.5c0.6,0,1.1,0.5,1.1,1.1v20.5
			C68.8,28.6,68.3,29.1,67.8,29.1z"/>
		<path class="st0" d="M23.4,73.5H2.9c-0.6,0-1.1-0.5-1.1-1.1V51.9c0-0.6,0.5-1.1,1.1-1.1h20.5c0.6,0,1.1,0.5,1.1,1.1v20.5
			C24.4,73.1,24,73.5,23.4,73.5z"/>
		<path class="st0" d="M67.8,73.6H47.2c-0.6,0-1.1-0.5-1.1-1.1V52c0-0.6,0.5-1.1,1.1-1.1h20.5c0.6,0,1.1,0.5,1.1,1.1v20.5
			C68.8,73.1,68.3,73.6,67.8,73.6z"/>
		<path class="st0" d="M45.6,51.4H25.1c-0.6,0-1.1-0.5-1.1-1.1V29.8c0-0.6,0.5-1.1,1.1-1.1h20.5c0.6,0,1.1,0.5,1.1,1.1v20.5
			C46.7,51,46.2,51.4,45.6,51.4z"/>
	</g>
</g>
</svg>
